<svg xmlns="http://www.w3.org/2000/svg" width="174.854" height="163.926" viewBox="0 0 174.854 163.926">
  <g id="Dog_or_cat_paw_print_flat_icon_for_animal_apps_and_websites" data-name="Dog or cat paw print flat icon for animal apps and websites" transform="translate(87.427 81.963)">
    <g id="Group_1" data-name="Group 1" transform="translate(-87.427 -81.963)">
      <path id="Path_1" data-name="Path 1" d="M282.493,707.942c-10.368,2.95-22.592-6.2-27.307-20.44s-.128-28.178,10.239-31.128,22.593,6.2,27.305,20.44S292.86,704.988,282.493,707.942Z" transform="translate(-253.333 -602.448)"/>
      <path id="Path_2" data-name="Path 2" d="M544.159,254.428c2.794,17.032,15.3,29.447,27.938,27.732s20.618-16.91,17.828-33.939-15.308-29.446-27.943-27.731S541.365,237.4,544.159,254.428Z" transform="translate(-509.614 -217.951)"/>
      <path id="Path_3" data-name="Path 3" d="M1423.576,652.229c10.368,2.979,14.945,17.04,10.237,31.413s-16.934,23.6-27.3,20.63-14.951-17.04-10.239-31.411S1413.213,649.253,1423.576,652.229Z" transform="translate(-1260.812 -598.785)"/>
      <path id="Path_4" data-name="Path 4" d="M1085.062,200.159c12.639,1.738,20.62,17.153,17.829,34.429s-15.3,29.869-27.937,28.128-20.624-17.153-17.832-34.428S1072.424,198.42,1085.062,200.159Z" transform="translate(-962.516 -199.999)"/>
      <path id="Path_5" data-name="Path 5" d="M502.3,789.549c-17.161-.193-24.282,13.071-33.754,26.233-9.014,12.534-15.452,16.464-21.245,21.864-5.194,4.846-20.965,22.576-10.508,37.891,12.307,18.028,39.134,2.188,61.1,2.436,23.733.264,50.047,14.245,60.284.272,9.354-12.759,3.975-28.794-8.735-39.67-6.253-5.355-12.927-14.5-16.806-19.418C524.5,808.849,520.672,789.756,502.3,789.549Z" transform="translate(-412.216 -720.517)"/>
    </g>
  </g>
</svg>
